<svg xmlns="http://www.w3.org/2000/svg" width="1000" height="1000" viewBox="0 0 600 600"><defs><filter id="grain"><feTurbulence type="fractalNoise" baseFrequency=".62" numOctaves="3" stitchTiles="stitch"/><feColorMatrix type="saturate" values="0"/><feComponentTransfer><feFuncA type="linear" slope=".09"/></feComponentTransfer><feBlend in="SourceGraphic" mode="multiply"/></filter></defs><rect width="600" height="600" fill="#ba6938"/><g filter="url(#grain)"><rect width="600" height="600" fill="#ba6938"/><path d="M45 200Q200 115 310 210T555 220" stroke="#fff0ca" stroke-width="2" fill="none" opacity="0.3"/><path d="M45 236Q200 157 310 240T555 252" stroke="#fff0ca" stroke-width="2" fill="none" opacity="0.39"/><path d="M45 272Q200 199 310 270T555 284" stroke="#fff0ca" stroke-width="2" fill="none" opacity="0.48"/><path d="M45 308Q200 241 310 300T555 316" stroke="#fff0ca" stroke-width="2" fill="none" opacity="0.5700000000000001"/><path d="M45 344Q200 283 310 330T555 348" stroke="#fff0ca" stroke-width="2" fill="none" opacity="0.6599999999999999"/><path d="M45 380Q200 325 310 360T555 380" stroke="#fff0ca" stroke-width="2" fill="none" opacity="0.75"/><path d="M45 416Q200 367 310 390T555 412" stroke="#fff0ca" stroke-width="2" fill="none" opacity="0.8400000000000001"/></g><text x="40" y="60" fill="#fff0ca" font-family="Arial,sans-serif" font-size="13" letter-spacing="4">ALMA</text><text x="40" y="535" fill="#fff0ca" font-family="Georgia,serif" font-size="40">Golden</text><text x="42" y="565" fill="#fff0ca" font-family="Arial,sans-serif" font-size="8" letter-spacing="3">STEREO · ARCHIVE RECORDINGS · 12</text><rect x="18" y="18" width="564" height="564" stroke="#fff0ca" opacity=".3" fill="none"/></svg>
